<svg xmlns="http://www.w3.org/2000/svg" width="30" height="27" viewBox="0 0 30 27">
  <metadata><?xpacket begin="﻿" id="W5M0MpCehiHzreSzNTczkc9d"?>
<x:xmpmeta xmlns:x="adobe:ns:meta/" x:xmptk="Adobe XMP Core 5.6-c138 79.159824, 2016/09/14-01:09:01        ">
   <rdf:RDF xmlns:rdf="http://www.w3.org/1999/02/22-rdf-syntax-ns#">
      <rdf:Description rdf:about=""/>
   </rdf:RDF>
</x:xmpmeta>
                                                                                                    
                                                                                                    
                                                                                                    
                                                                                                    
                                                                                                    
                                                                                                    
                                                                                                    
                                                                                                    
                                                                                                    
                                                                                                    
                                                                                                    
                                                                                                    
                                                                                                    
                                                                                                    
                                                                                                    
                                                                                                    
                                                                                                    
                                                                                                    
                                                                                                    
                                                                                                    
                           
<?xpacket end="w"?></metadata>
<defs>
    <style>
      .cls-1 {
        fill-rule: evenodd;
      }
    </style>
  </defs>
  <path class="cls-1" d="M1311.08,65.118h2.63l-3.9-6.565a1.138,1.138,0,0,0-1.55-.4,1.1,1.1,0,0,0-.41,1.523Zm-8.92-5.44a1.109,1.109,0,0,0-.41-1.523,1.144,1.144,0,0,0-1.55.4l-3.9,6.571h2.63Zm15.91,7.453h-26.14a1.908,1.908,0,0,0-1.93,1.892v2.1a1.908,1.908,0,0,0,1.93,1.892h0.6l1.86,9.9A2.635,2.635,0,0,0,1296.84,85h15.94a2.624,2.624,0,0,0,2.44-2.091l1.87-9.9h0.98a1.908,1.908,0,0,0,1.93-1.892v-2.1A1.92,1.92,0,0,0,1318.07,67.131Zm-17.43,9.889v4.268a1.09,1.09,0,0,1-2.18,0V75.3a1.09,1.09,0,0,1,2.18,0v1.717Zm3.5,0v4.268a1.09,1.09,0,0,1-2.18,0V75.3a1.081,1.081,0,0,1,1.09-1.07,1.1,1.1,0,0,1,1.09,1.07v1.717Zm3.52,2.478v1.789a1.09,1.09,0,0,1-2.18,0V75.3a1.1,1.1,0,0,1,1.09-1.07,1.081,1.081,0,0,1,1.09,1.07v4.2Zm3.5,0v1.789a1.09,1.09,0,0,1-2.18,0V75.3a1.09,1.09,0,0,1,2.18,0v4.2Z" transform="translate(-1290 -58)"/>
</svg>
