<svg xmlns="http://www.w3.org/2000/svg" width="22" height="22" viewBox="0 0 22 22">
  <metadata><?xpacket begin="﻿" id="W5M0MpCehiHzreSzNTczkc9d"?>
<x:xmpmeta xmlns:x="adobe:ns:meta/" x:xmptk="Adobe XMP Core 5.6-c138 79.159824, 2016/09/14-01:09:01        ">
   <rdf:RDF xmlns:rdf="http://www.w3.org/1999/02/22-rdf-syntax-ns#">
      <rdf:Description rdf:about=""/>
   </rdf:RDF>
</x:xmpmeta>
                                                                                                    
                                                                                                    
                                                                                                    
                                                                                                    
                                                                                                    
                                                                                                    
                                                                                                    
                                                                                                    
                                                                                                    
                                                                                                    
                                                                                                    
                                                                                                    
                                                                                                    
                                                                                                    
                                                                                                    
                                                                                                    
                                                                                                    
                                                                                                    
                                                                                                    
                                                                                                    
                           
<?xpacket end="w"?></metadata>
<defs>
    <style>
      .cls-1 {
        fill: #fb0b0c;
        fill-rule: evenodd;
      }
    </style>
  </defs>
  <path id="Forma_1" data-name="Forma 1" class="cls-1" d="M666,53.375A9.625,9.625,0,1,1,656.375,63,9.637,9.637,0,0,1,666,53.375M666,52a11,11,0,1,0,11,11,11,11,0,0,0-11-11h0Zm6.132,14.678-0.061-.188a1.741,1.741,0,0,0-1.064-1l-1.626-.444a1.592,1.592,0,0,0-1.392.365l-0.589.588a6.249,6.249,0,0,1-4.392-4.394l0.588-.588a1.591,1.591,0,0,0,.364-1.392l-0.443-1.626a1.738,1.738,0,0,0-1.006-1.063l-0.185-.062a1.47,1.47,0,0,0-1.375.325l-0.881.881a1.642,1.642,0,0,0-.258.6A10.389,10.389,0,0,0,670.3,69.186a1.621,1.621,0,0,0,.633-0.255l0.881-.881A1.473,1.473,0,0,0,672.132,66.678Z" transform="translate(-655 -52)"/>
</svg>
