<svg xmlns="http://www.w3.org/2000/svg" width="30" height="30" viewBox="0 0 30 30">
  <metadata><?xpacket begin="﻿" id="W5M0MpCehiHzreSzNTczkc9d"?>
<x:xmpmeta xmlns:x="adobe:ns:meta/" x:xmptk="Adobe XMP Core 5.6-c138 79.159824, 2016/09/14-01:09:01        ">
   <rdf:RDF xmlns:rdf="http://www.w3.org/1999/02/22-rdf-syntax-ns#">
      <rdf:Description rdf:about=""/>
   </rdf:RDF>
</x:xmpmeta>
                                                                                                    
                                                                                                    
                                                                                                    
                                                                                                    
                                                                                                    
                                                                                                    
                                                                                                    
                                                                                                    
                                                                                                    
                                                                                                    
                                                                                                    
                                                                                                    
                                                                                                    
                                                                                                    
                                                                                                    
                                                                                                    
                                                                                                    
                                                                                                    
                                                                                                    
                                                                                                    
                           
<?xpacket end="w"?></metadata>
<defs>
    <style>
      .cls-1 {
        fill-rule: evenodd;
      }
    </style>
  </defs>
  <path id="Инст" class="cls-1" d="M1565,72a3.007,3.007,0,0,0,3-3,2.953,2.953,0,0,0-.57-1.75A2.986,2.986,0,0,0,1565,66,3,3,0,0,0,1565,72Zm6.55-6.675V62.436h-0.37l-2.52.008,0.01,2.891ZM1565,54a15,15,0,1,0,15,15A15.016,15.016,0,0,0,1565,54Zm8.53,13.246v6.983a3.3,3.3,0,0,1-3.3,3.3h-10.46a3.3,3.3,0,0,1-3.3-3.3V63.767a3.3,3.3,0,0,1,3.3-3.3h10.46a3.3,3.3,0,0,1,3.3,3.3v3.482ZM1569.66,69a4.665,4.665,0,1,1-8.98-1.75h-2.55v6.983a1.634,1.634,0,0,0,1.64,1.634h10.46a1.632,1.632,0,0,0,1.63-1.634V67.249h-2.54A4.629,4.629,0,0,1,1569.66,69Z" transform="translate(-1550 -54)"/>
</svg>
