<svg xmlns="http://www.w3.org/2000/svg" width="30" height="30" viewBox="0 0 30 30">
  <metadata><?xpacket begin="﻿" id="W5M0MpCehiHzreSzNTczkc9d"?>
<x:xmpmeta xmlns:x="adobe:ns:meta/" x:xmptk="Adobe XMP Core 5.6-c138 79.159824, 2016/09/14-01:09:01        ">
   <rdf:RDF xmlns:rdf="http://www.w3.org/1999/02/22-rdf-syntax-ns#">
      <rdf:Description rdf:about=""/>
   </rdf:RDF>
</x:xmpmeta>
                                                                                                    
                                                                                                    
                                                                                                    
                                                                                                    
                                                                                                    
                                                                                                    
                                                                                                    
                                                                                                    
                                                                                                    
                                                                                                    
                                                                                                    
                                                                                                    
                                                                                                    
                                                                                                    
                                                                                                    
                                                                                                    
                                                                                                    
                                                                                                    
                                                                                                    
                                                                                                    
                           
<?xpacket end="w"?></metadata>
<defs>
    <style>
      .cls-1 {
        fill-rule: evenodd;
      }
    </style>
  </defs>
  <path id="Вк" class="cls-1" d="M1515,54a15,15,0,1,0,15,15A15,15,0,0,0,1515,54Zm7.61,16.621a28.8,28.8,0,0,1,2.07,2.079,5.771,5.771,0,0,1,.73,1.065,0.761,0.761,0,0,1-.46,1.192h-3.08a2.362,2.362,0,0,1-1.95-.8c-0.43-.432-0.82-0.894-1.23-1.341a3,3,0,0,0-.56-0.492,0.64,0.64,0,0,0-1.02.248,3.231,3.231,0,0,0-.32,1.434,0.818,0.818,0,0,1-.98.948,7.887,7.887,0,0,1-4.4-.946,9.747,9.747,0,0,1-2.96-2.77,37.6,37.6,0,0,1-3.89-6.944c-0.25-.547-0.07-0.84.54-0.851,1-.02,2-0.017,3,0a0.891,0.891,0,0,1,.84.625,18.7,18.7,0,0,0,2.04,3.779,3.238,3.238,0,0,0,.77.847,0.463,0.463,0,0,0,.79-0.234,2.422,2.422,0,0,0,.18-0.794,11.729,11.729,0,0,0-.05-2.777,1.152,1.152,0,0,0-.98-1.06c-0.3-.055-0.25-0.164-0.11-0.332a1.107,1.107,0,0,1,.94-0.469h3.47a0.834,0.834,0,0,1,.75.9v3.858a1.124,1.124,0,0,0,.49.986,0.672,0.672,0,0,0,.69-0.34,11.78,11.78,0,0,0,1.96-3.006c0.23-.476.44-0.969,0.63-1.462a0.757,0.757,0,0,1,.79-0.538l3.34,0a1.809,1.809,0,0,1,.3.018,0.578,0.578,0,0,1,.54.889,8.254,8.254,0,0,1-1.33,2.3c-0.56.772-1.15,1.517-1.7,2.293A1.047,1.047,0,0,0,1522.61,70.622Z" transform="translate(-1500 -54)"/>
</svg>
