<svg xmlns="http://www.w3.org/2000/svg" width="117" height="15" viewBox="0 0 117 15">
  <metadata><?xpacket begin="﻿" id="W5M0MpCehiHzreSzNTczkc9d"?>
<x:xmpmeta xmlns:x="adobe:ns:meta/" x:xmptk="Adobe XMP Core 5.6-c138 79.159824, 2016/09/14-01:09:01        ">
   <rdf:RDF xmlns:rdf="http://www.w3.org/1999/02/22-rdf-syntax-ns#">
      <rdf:Description rdf:about=""/>
   </rdf:RDF>
</x:xmpmeta>
                                                                                                    
                                                                                                    
                                                                                                    
                                                                                                    
                                                                                                    
                                                                                                    
                                                                                                    
                                                                                                    
                                                                                                    
                                                                                                    
                                                                                                    
                                                                                                    
                                                                                                    
                                                                                                    
                                                                                                    
                                                                                                    
                                                                                                    
                                                                                                    
                                                                                                    
                                                                                                    
                           
<?xpacket end="w"?></metadata>
<defs>
    <style>
      .cls-1 {
        fill: #fff;
        fill-rule: evenodd;
      }
    </style>
  </defs>
  <path class="cls-1" d="M673.923,2043.69v-6.58a3.925,3.925,0,0,0-3.69-4.16,4.288,4.288,0,0,0-.507,0,4.158,4.158,0,0,0-3.751,1.86,3.933,3.933,0,0,0-3.528-1.86,3.56,3.56,0,0,0-3.125,1.55v-1.29H657v10.48h2.344v-5.76a2.463,2.463,0,0,1,2.139-2.77,2.5,2.5,0,0,1,.473-0.02c1.541,0,2.322.99,2.322,2.76v5.84h2.344v-5.81a2.482,2.482,0,0,1,2.164-2.77,2.249,2.249,0,0,1,.449-0.02c1.585,0,2.344.99,2.344,2.76v5.84Zm34.684-10.48h-3.818v-3.18h-2.344v3.18h-2.121v2.08h2.165v4.83c0,2.43.96,3.88,3.706,3.88a5.585,5.585,0,0,0,2.9-.81l-0.67-1.95a4.355,4.355,0,0,1-2.054.59,1.47,1.47,0,0,1-1.54-1.75v-4.79h3.8Zm19.8-.26a3.141,3.141,0,0,0-2.813,1.53v-1.27h-2.3v10.48h2.322v-5.87c0-1.74.759-2.7,2.233-2.7a3.785,3.785,0,0,1,1.451.26l0.714-2.19a5.154,5.154,0,0,0-1.652-.29Zm-29.939,1.09a8.175,8.175,0,0,0-4.354-1.09c-2.7,0-4.465,1.27-4.465,3.35,0,1.71,1.295,2.77,3.684,3.1l1.116,0.15c1.272,0.17,1.875.5,1.875,1.1,0,0.81-.848,1.27-2.433,1.27a5.773,5.773,0,0,1-3.55-1.1l-1.116,1.78a7.815,7.815,0,0,0,4.621,1.36c3.081,0,4.867-1.43,4.867-3.42s-1.406-2.81-3.728-3.14l-1.117-.15c-1-.14-1.808-0.33-1.808-1.03s0.759-1.23,2.032-1.23a6.894,6.894,0,0,1,3.349.9Zm62.189-1.09a3.141,3.141,0,0,0-2.813,1.53v-1.27h-2.3v10.48h2.322v-5.87c0-1.74.76-2.7,2.233-2.7a3.782,3.782,0,0,1,1.451.26l0.715-2.19a5.165,5.165,0,0,0-1.653-.29Zm-29.917,5.48a5.342,5.342,0,0,0,5.19,5.49c0.168,0,.336,0,0.5-0.01a5.613,5.613,0,0,0,3.84-1.25l-1.116-1.84a4.741,4.741,0,0,1-2.791.94,3.362,3.362,0,0,1,0-6.71,4.684,4.684,0,0,1,2.791.95l1.116-1.85a5.663,5.663,0,0,0-3.84-1.25,5.363,5.363,0,0,0-5.688,4.99c-0.009.17-.011,0.33,0,0.5v0.04Zm21.746,0v-5.22h-2.322v1.27a4.072,4.072,0,0,0-3.349-1.53,5.481,5.481,0,1,0,0,10.96,4.072,4.072,0,0,0,3.349-1.53v1.27h2.322v-5.22Zm-8.641,0a3.16,3.16,0,1,1-.006.25C743.841,2038.6,743.843,2038.51,743.848,2038.43Zm-28.019-5.48a5.481,5.481,0,1,0,.156,10.96h0a6.554,6.554,0,0,0,4.432-1.42l-1.116-1.69a5.194,5.194,0,0,1-3.1,1.1,2.954,2.954,0,0,1-3.193-2.57h7.926v-0.88c0-3.29-2.077-5.48-5.068-5.48Zm0,2.04a2.627,2.627,0,0,1,2.7,2.54h-5.582a2.727,2.727,0,0,1,2.835-2.54h0.045ZM774,2038.45V2029h-2.233v5.48a4.072,4.072,0,0,0-3.349-1.53,5.481,5.481,0,1,0,0,10.96,4.072,4.072,0,0,0,3.349-1.53v1.27H774v-5.2Zm-8.584,0a3.148,3.148,0,1,1-.007.25C765.408,2038.62,765.41,2038.54,765.416,2038.45Zm-78.4,0v-5.24H684.7v1.27a4.072,4.072,0,0,0-3.349-1.53,5.481,5.481,0,1,0,0,10.96,4.072,4.072,0,0,0,3.349-1.53v1.27h2.322v-5.2Zm-8.64,0a2.932,2.932,0,1,1-.029.27c0-.09,0-0.18.007-0.27h0.022Z" transform="translate(-657 -2029)"/>
</svg>
