<svg xmlns="http://www.w3.org/2000/svg" width="54" height="15" viewBox="0 0 54 15">
  <metadata><?xpacket begin="﻿" id="W5M0MpCehiHzreSzNTczkc9d"?>
<x:xmpmeta xmlns:x="adobe:ns:meta/" x:xmptk="Adobe XMP Core 5.6-c138 79.159824, 2016/09/14-01:09:01        ">
   <rdf:RDF xmlns:rdf="http://www.w3.org/1999/02/22-rdf-syntax-ns#">
      <rdf:Description rdf:about=""/>
   </rdf:RDF>
</x:xmpmeta>
                                                                                                    
                                                                                                    
                                                                                                    
                                                                                                    
                                                                                                    
                                                                                                    
                                                                                                    
                                                                                                    
                                                                                                    
                                                                                                    
                                                                                                    
                                                                                                    
                                                                                                    
                                                                                                    
                                                                                                    
                                                                                                    
                                                                                                    
                                                                                                    
                                                                                                    
                                                                                                    
                           
<?xpacket end="w"?></metadata>
<defs>
    <style>
      .cls-1 {
        fill: #fff;
        fill-rule: evenodd;
      }
    </style>
  </defs>
  <path class="cls-1" d="M834.065,2030.59l-3.411,7.27h-0.347V2029h-4.846v15h4.114a2.778,2.778,0,0,0,2.513-1.58l3.412-7.28h0.346V2044h4.847v-15H836.58a2.771,2.771,0,0,0-2.515,1.59m-18.181.38-2.019,6.9h-0.346l-2.019-6.9a2.759,2.759,0,0,0-2.66-1.97H804v15h4.845v-8.86h0.347l2.769,8.86h3.462l2.769-8.86h0.346V2044h4.846v-15h-4.84a2.759,2.759,0,0,0-2.66,1.97m26.885,4.85V2044h4.837v-4.77h5.2a5.192,5.192,0,0,0,4.89-3.41H842.769Zm10.039-6.82H842.077a7.588,7.588,0,0,0,7.486,6.14H857.9a5.067,5.067,0,0,0,.1-1.03,5.153,5.153,0,0,0-5.192-5.11" transform="translate(-804 -2029)"/>
</svg>
