<svg xmlns="http://www.w3.org/2000/svg" width="48" height="14.97" viewBox="0 0 48 14.97">
  <metadata><?xpacket begin="﻿" id="W5M0MpCehiHzreSzNTczkc9d"?>
<x:xmpmeta xmlns:x="adobe:ns:meta/" x:xmptk="Adobe XMP Core 5.6-c138 79.159824, 2016/09/14-01:09:01        ">
   <rdf:RDF xmlns:rdf="http://www.w3.org/1999/02/22-rdf-syntax-ns#">
      <rdf:Description rdf:about=""/>
   </rdf:RDF>
</x:xmpmeta>
                                                                                                    
                                                                                                    
                                                                                                    
                                                                                                    
                                                                                                    
                                                                                                    
                                                                                                    
                                                                                                    
                                                                                                    
                                                                                                    
                                                                                                    
                                                                                                    
                                                                                                    
                                                                                                    
                                                                                                    
                                                                                                    
                                                                                                    
                                                                                                    
                                                                                                    
                                                                                                    
                           
<?xpacket end="w"?></metadata>
<defs>
    <style>
      .cls-1 {
        fill: #fff;
        fill-rule: evenodd;
      }
    </style>
  </defs>
  <path id="Forma_1" data-name="Forma 1" class="cls-1" d="M620.84,2029.28h-3.014a1.943,1.943,0,0,0-2.044,1.2l-5.791,13.29h4.1s0.668-1.79.819-2.18c0.449,0,4.429.01,5,.01,0.117,0.51.475,2.17,0.475,2.17H624Zm-4.811,9.35c0.323-.84,1.554-4.06,1.554-4.06-0.02.04,0.32-.84,0.52-1.38l0.264,1.25s0.747,3.46.9,4.19h-3.241Zm-5.763.4c-0.029,3.01-2.694,4.95-6.794,4.95a12.392,12.392,0,0,1-4.347-.77l0.549-3.25,0.5,0.23a8.107,8.107,0,0,0,3.673.76c1.121,0,2.322-.44,2.333-1.41,0.007-.64-0.5-1.09-2.021-1.8-1.482-.7-3.443-1.86-3.418-3.94,0.022-2.82,2.738-4.79,6.594-4.79a10.031,10.031,0,0,1,3.494.61l-0.527,3.15-0.353-.17a7.155,7.155,0,0,0-2.919-.56c-1.527,0-2.236.65-2.236,1.25-0.008.68,0.827,1.13,2.191,1.8C609.241,2036.12,610.282,2037.38,610.266,2039.03Zm-34.261-9.6,0.05-.29H582.1a1.565,1.565,0,0,1,1.7,1.18l1.315,6.4C583.825,2033.37,580.711,2030.58,576.005,2029.43Zm17.639-.15-6.143,14.47-4.128.01-3.494-12.1a15.522,15.522,0,0,1,5.4,6.01l0.407,1.5,3.82-9.89h4.133Zm1.577-.02h3.9l-2.441,14.5h-3.9Z" transform="translate(-576 -2029)"/>
</svg>
