<svg xmlns="http://www.w3.org/2000/svg" style="display:none"><defs><style>.cls-1{fill-rule:evenodd}</style><style>.cls-1{fill-rule:evenodd}</style><style>.cls-1{fill:#fb0b0c;fill-rule:evenodd}</style><style>.cls-1{fill:#fb0b0c;fill-rule:evenodd}</style><style>.cls-1{fill-rule:evenodd}</style><style>.cls-1{fill-rule:evenodd}</style><style>.cls-1{fill-rule:evenodd;opacity:.4}</style><style>.cls-1{fill:#fff;fill-rule:evenodd}</style><style>.cls-1{fill:#fff;fill-rule:evenodd}</style><style>.cls-1{fill:#fff;fill-rule:evenodd}</style><style>.cls-1{fill:#fb0b0c;fill-rule:evenodd}</style></defs><symbol id="icon-bascet" viewBox="0 0 30 27"><path class="cls-1" d="M21.08 7.118h2.63L19.81.553a1.138 1.138 0 0 0-1.55-.4 1.1 1.1 0 0 0-.41 1.523zm-8.92-5.44a1.109 1.109 0 0 0-.41-1.523 1.144 1.144 0 0 0-1.55.4L6.3 7.126h2.63zm15.91 7.453H1.93A1.908 1.908 0 0 0 0 11.023v2.1a1.908 1.908 0 0 0 1.93 1.892h.6l1.86 9.9A2.635 2.635 0 0 0 6.84 27h15.94a2.624 2.624 0 0 0 2.44-2.091l1.87-9.9h.98A1.908 1.908 0 0 0 30 13.117v-2.1a1.92 1.92 0 0 0-1.93-1.886zM10.64 19.02v4.268a1.09 1.09 0 0 1-2.18 0V17.3a1.09 1.09 0 0 1 2.18 0v1.717zm3.5 0v4.268a1.09 1.09 0 0 1-2.18 0V17.3a1.081 1.081 0 0 1 1.09-1.07 1.1 1.1 0 0 1 1.09 1.07v1.717zm3.52 2.478v1.789a1.09 1.09 0 0 1-2.18 0V17.3a1.1 1.1 0 0 1 1.09-1.07 1.081 1.081 0 0 1 1.09 1.07v4.2zm3.5 0v1.789a1.09 1.09 0 0 1-2.18 0V17.3a1.09 1.09 0 0 1 2.18 0v4.2z"/></symbol><symbol id="icon-basket" viewBox="0 0 30 27"><path class="cls-1" d="M21.08 7.118h2.63L19.81.553a1.138 1.138 0 0 0-1.55-.4 1.1 1.1 0 0 0-.41 1.523zm-8.92-5.44a1.109 1.109 0 0 0-.41-1.523 1.144 1.144 0 0 0-1.55.4L6.3 7.126h2.63zm15.91 7.453H1.93A1.908 1.908 0 0 0 0 11.023v2.1a1.908 1.908 0 0 0 1.93 1.892h.6l1.86 9.9A2.635 2.635 0 0 0 6.84 27h15.94a2.624 2.624 0 0 0 2.44-2.091l1.87-9.9h.98A1.908 1.908 0 0 0 30 13.117v-2.1a1.92 1.92 0 0 0-1.93-1.886zM10.64 19.02v4.268a1.09 1.09 0 0 1-2.18 0V17.3a1.09 1.09 0 0 1 2.18 0v1.717zm3.5 0v4.268a1.09 1.09 0 0 1-2.18 0V17.3a1.081 1.081 0 0 1 1.09-1.07 1.1 1.1 0 0 1 1.09 1.07v1.717zm3.52 2.478v1.789a1.09 1.09 0 0 1-2.18 0V17.3a1.1 1.1 0 0 1 1.09-1.07 1.081 1.081 0 0 1 1.09 1.07v4.2zm3.5 0v1.789a1.09 1.09 0 0 1-2.18 0V17.3a1.09 1.09 0 0 1 2.18 0v4.2z"/></symbol><symbol id="icon-chek" viewBox="0 0 34 34"><path id="Forma_1" data-name="Forma 1" class="cls-1" d="M739.03 2170.77l-2.38 2.38 7.65 7.65 17-17-2.38-2.38-14.62 14.62zm20.57 3.23a13.6 13.6 0 1 1-13.6-13.6 13.257 13.257 0 0 1 3.74.51l2.72-2.72A20.691 20.691 0 0 0 746 2157a17 17 0 1 0 17 17h-3.4z" transform="translate(-729 -2157)"/></symbol><symbol id="icon-phone" viewBox="0 0 22 22"><path id="Forma_1" data-name="Forma 1" class="cls-1" d="M666 53.375A9.625 9.625 0 1 1 656.375 63 9.637 9.637 0 0 1 666 53.375M666 52a11 11 0 1 0 11 11 11 11 0 0 0-11-11zm6.132 14.678l-.061-.188a1.741 1.741 0 0 0-1.064-1l-1.626-.444a1.592 1.592 0 0 0-1.392.365l-.589.588a6.249 6.249 0 0 1-4.392-4.394l.588-.588a1.591 1.591 0 0 0 .364-1.392l-.443-1.626a1.738 1.738 0 0 0-1.006-1.063l-.185-.062a1.47 1.47 0 0 0-1.375.325l-.881.881a1.642 1.642 0 0 0-.258.6A10.389 10.389 0 0 0 670.3 69.186a1.621 1.621 0 0 0 .633-.255l.881-.881a1.473 1.473 0 0 0 .318-1.372z" transform="translate(-655 -52)"/></symbol><symbol id="icon-social-insta" viewBox="0 0 30 30"><path id="&#x418;&#x43D;&#x441;&#x442;" class="cls-1" d="M1565 72a3.007 3.007 0 0 0 3-3 2.953 2.953 0 0 0-.57-1.75A2.986 2.986 0 0 0 1565 66a3 3 0 0 0 0 6zm6.55-6.675v-2.889h-.37l-2.52.008.01 2.891zM1565 54a15 15 0 1 0 15 15 15.016 15.016 0 0 0-15-15zm8.53 13.246v6.983a3.3 3.3 0 0 1-3.3 3.3h-10.46a3.3 3.3 0 0 1-3.3-3.3V63.767a3.3 3.3 0 0 1 3.3-3.3h10.46a3.3 3.3 0 0 1 3.3 3.3v3.482zM1569.66 69a4.665 4.665 0 1 1-8.98-1.75h-2.55v6.983a1.634 1.634 0 0 0 1.64 1.634h10.46a1.632 1.632 0 0 0 1.63-1.634v-6.984h-2.54a4.629 4.629 0 0 1 .34 1.751z" transform="translate(-1550 -54)"/></symbol><symbol id="icon-social-vk" viewBox="0 0 30 30"><path id="&#x412;&#x43A;" class="cls-1" d="M1515 54a15 15 0 1 0 15 15 15 15 0 0 0-15-15zm7.61 16.621a28.8 28.8 0 0 1 2.07 2.079 5.771 5.771 0 0 1 .73 1.065.761.761 0 0 1-.46 1.192h-3.08a2.362 2.362 0 0 1-1.95-.8c-.43-.432-.82-.894-1.23-1.341a3 3 0 0 0-.56-.492.64.64 0 0 0-1.02.248 3.231 3.231 0 0 0-.32 1.434.818.818 0 0 1-.98.948 7.887 7.887 0 0 1-4.4-.946 9.747 9.747 0 0 1-2.96-2.77 37.6 37.6 0 0 1-3.89-6.944c-.25-.547-.07-.84.54-.851 1-.02 2-.017 3 0a.891.891 0 0 1 .84.625 18.7 18.7 0 0 0 2.04 3.779 3.238 3.238 0 0 0 .77.847.463.463 0 0 0 .79-.234 2.422 2.422 0 0 0 .18-.794 11.729 11.729 0 0 0-.05-2.777 1.152 1.152 0 0 0-.98-1.06c-.3-.055-.25-.164-.11-.332a1.107 1.107 0 0 1 .94-.469h3.47a.834.834 0 0 1 .75.9v3.858a1.124 1.124 0 0 0 .49.986.672.672 0 0 0 .69-.34 11.78 11.78 0 0 0 1.96-3.006c.23-.476.44-.969.63-1.462a.757.757 0 0 1 .79-.538h3.34a1.809 1.809 0 0 1 .3.018.578.578 0 0 1 .54.889 8.254 8.254 0 0 1-1.33 2.3c-.56.772-1.15 1.517-1.7 2.293a1.047 1.047 0 0 0 .16 1.696z" transform="translate(-1500 -54)"/></symbol><symbol id="minus" viewBox="0 0 20 20"><path id="Forma_1_&#x43A;&#x43E;&#x43F;&#x438;&#x44F;" data-name="Forma 1 &#x43A;&#x43E;&#x43F;&#x438;&#x44F;" class="cls-1" d="M1157 655v2h10v-2h-10zm5-9a10 10 0 1 0 10 10 9.994 9.994 0 0 0-10-10zm0 18a8 8 0 1 1 8-8 8.011 8.011 0 0 1-8 8z" transform="translate(-1152 -646)"/></symbol><symbol id="pay-logo-master" viewBox="0 0 117 15"><path class="cls-1" d="M16.923 14.69V8.11a3.925 3.925 0 0 0-3.69-4.16 4.288 4.288 0 0 0-.507 0 4.158 4.158 0 0 0-3.751 1.86 3.933 3.933 0 0 0-3.528-1.86A3.56 3.56 0 0 0 2.322 5.5V4.21H0v10.48h2.344V8.93a2.463 2.463 0 0 1 2.139-2.77 2.5 2.5 0 0 1 .473-.02c1.541 0 2.322.99 2.322 2.76v5.84h2.344V8.93a2.482 2.482 0 0 1 2.164-2.77 2.249 2.249 0 0 1 .449-.02c1.585 0 2.344.99 2.344 2.76v5.84zM51.607 4.21h-3.818V1.03h-2.344v3.18h-2.121v2.08h2.165v4.83c0 2.43.96 3.88 3.706 3.88a5.585 5.585 0 0 0 2.9-.81l-.67-1.95a4.355 4.355 0 0 1-2.054.59 1.47 1.47 0 0 1-1.54-1.75V6.29h3.8zm19.8-.26a3.141 3.141 0 0 0-2.813 1.53V4.21h-2.3v10.48h2.322V8.82c0-1.74.759-2.7 2.233-2.7a3.785 3.785 0 0 1 1.451.26l.714-2.19a5.154 5.154 0 0 0-1.652-.29zM41.468 5.04a8.175 8.175 0 0 0-4.354-1.09c-2.7 0-4.465 1.27-4.465 3.35 0 1.71 1.295 2.77 3.684 3.1l1.116.15c1.272.17 1.875.5 1.875 1.1 0 .81-.848 1.27-2.433 1.27a5.773 5.773 0 0 1-3.55-1.1l-1.116 1.78a7.815 7.815 0 0 0 4.621 1.36c3.081 0 4.867-1.43 4.867-3.42s-1.406-2.81-3.728-3.14l-1.117-.15c-1-.14-1.808-.33-1.808-1.03s.759-1.23 2.032-1.23a6.894 6.894 0 0 1 3.349.9zm62.189-1.09a3.141 3.141 0 0 0-2.813 1.53V4.21h-2.3v10.48h2.322V8.82c0-1.74.76-2.7 2.233-2.7a3.782 3.782 0 0 1 1.451.26l.715-2.19a5.165 5.165 0 0 0-1.653-.29zM73.74 9.43a5.342 5.342 0 0 0 5.19 5.49c.168 0 .336 0 .5-.01a5.613 5.613 0 0 0 3.84-1.25l-1.116-1.84a4.741 4.741 0 0 1-2.791.94 3.362 3.362 0 0 1 0-6.71 4.684 4.684 0 0 1 2.791.95l1.116-1.85a5.663 5.663 0 0 0-3.84-1.25 5.363 5.363 0 0 0-5.688 4.99 4.17 4.17 0 0 0 0 .5v.04zm21.746 0V4.21h-2.322v1.27a4.072 4.072 0 0 0-3.349-1.53 5.481 5.481 0 1 0 0 10.96 4.072 4.072 0 0 0 3.349-1.53v1.27h2.322V9.43zm-8.641 0a3.16 3.16 0 1 1-.006.25c.002-.08.004-.17.009-.25zM58.826 3.95a5.481 5.481 0 1 0 .156 10.96 6.554 6.554 0 0 0 4.432-1.42l-1.116-1.69a5.194 5.194 0 0 1-3.1 1.1 2.954 2.954 0 0 1-3.193-2.57h7.926v-.88c0-3.29-2.077-5.48-5.068-5.48zm0 2.04a2.627 2.627 0 0 1 2.7 2.54h-5.582a2.727 2.727 0 0 1 2.835-2.54h.045zM117 9.45V0h-2.233v5.48a4.072 4.072 0 0 0-3.349-1.53 5.481 5.481 0 1 0 0 10.96 4.072 4.072 0 0 0 3.349-1.53v1.27H117v-5.2zm-8.584 0a3.148 3.148 0 1 1-.007.25c-.001-.08.001-.16.007-.25zm-78.4 0V4.21H27.7v1.27a4.072 4.072 0 0 0-3.349-1.53 5.481 5.481 0 1 0 0 10.96 4.072 4.072 0 0 0 3.349-1.53v1.27h2.322v-5.2zm-8.64 0a2.932 2.932 0 1 1-.029.27c0-.09 0-.18.007-.27h.022z"/></symbol><symbol id="pay-logo-mir" viewBox="0 0 54 15"><path class="cls-1" d="M30.065 1.59l-3.411 7.27h-.347V0h-4.846v15h4.114a2.778 2.778 0 0 0 2.513-1.58L31.5 6.14h.346V15h4.847V0H32.58a2.771 2.771 0 0 0-2.515 1.59m-18.181.38l-2.019 6.9h-.346L7.5 1.97A2.759 2.759 0 0 0 4.84 0H0v15h4.845V6.14h.347L7.961 15h3.462l2.769-8.86h.346V15h4.846V0h-4.84a2.759 2.759 0 0 0-2.66 1.97m26.885 4.85V15h4.837v-4.77h5.2a5.192 5.192 0 0 0 4.89-3.41H38.769zM48.808 0H38.077a7.588 7.588 0 0 0 7.486 6.14H53.9a5.067 5.067 0 0 0 .1-1.03A5.153 5.153 0 0 0 48.808 0"/></symbol><symbol id="pay-logo-visa" viewBox="0 0 48 14.97"><path id="Forma_1" data-name="Forma 1" class="cls-1" d="M620.84 2029.28h-3.014a1.943 1.943 0 0 0-2.044 1.2l-5.791 13.29h4.1s.668-1.79.819-2.18c.449 0 4.429.01 5 .01.117.51.475 2.17.475 2.17H624zm-4.811 9.35c.323-.84 1.554-4.06 1.554-4.06-.02.04.32-.84.52-1.38l.264 1.25s.747 3.46.9 4.19h-3.241zm-5.763.4c-.029 3.01-2.694 4.95-6.794 4.95a12.392 12.392 0 0 1-4.347-.77l.549-3.25.5.23a8.107 8.107 0 0 0 3.673.76c1.121 0 2.322-.44 2.333-1.41.007-.64-.5-1.09-2.021-1.8-1.482-.7-3.443-1.86-3.418-3.94.022-2.82 2.738-4.79 6.594-4.79a10.031 10.031 0 0 1 3.494.61l-.527 3.15-.353-.17a7.155 7.155 0 0 0-2.919-.56c-1.527 0-2.236.65-2.236 1.25-.008.68.827 1.13 2.191 1.8 2.256 1.03 3.297 2.29 3.281 3.94zm-34.261-9.6l.05-.29h6.045a1.565 1.565 0 0 1 1.7 1.18l1.315 6.4c-1.29-3.35-4.404-6.14-9.11-7.29zm17.639-.15l-6.143 14.47-4.128.01-3.494-12.1a15.522 15.522 0 0 1 5.4 6.01l.407 1.5 3.82-9.89h4.133zm1.577-.02h3.9l-2.441 14.5h-3.9z" transform="translate(-576 -2029)"/></symbol><symbol id="plus" viewBox="0 0 20 20"><path id="Forma_1" data-name="Forma 1" class="cls-1" d="M1226 651h-2v4h-4v2h4v4h2v-4h4v-2h-4v-4zm-1-5a10 10 0 1 0 10 10 9.994 9.994 0 0 0-10-10zm0 18a8 8 0 1 1 8-8 8.011 8.011 0 0 1-8 8z" transform="translate(-1215 -646)"/></symbol><symbol id="temp-icon-left-arrow" viewBox="0 0 31.494 31.494"><path d="M10.273 5.01a1.117 1.117 0 0 1 1.587 1.57l-8.047 8.047h26.554c.62 0 1.127.492 1.127 1.11 0 .62-.508 1.128-1.127 1.128H3.813l8.047 8.032c.43.444.43 1.16 0 1.587a1.112 1.112 0 0 1-1.587 0L.32 16.532a1.12 1.12 0 0 1 0-1.57l9.953-9.953z" fill="#1E201D"/></symbol><symbol id="temp-icon-right-arrow" viewBox="0 0 31.49 31.49"><path d="M21.205 5.007a1.117 1.117 0 0 0-1.587 1.57l8.047 8.048H1.11c-.618 0-1.11.493-1.11 1.112 0 .62.492 1.127 1.11 1.127h26.555l-8.047 8.032c-.43.444-.43 1.16 0 1.587.444.444 1.16.444 1.587 0l9.952-9.952a1.092 1.092 0 0 0 0-1.57l-9.952-9.95z" fill="#1E201D"/></symbol></svg>